<?xml version="1.0" standalone="no"?>
<svg xmlns:xlink="http://www.w3.org/1999/xlink" id="wave" style="transform:rotate(180deg); transition: 0.3s" viewBox="0 0 1440 490" version="1.1" xmlns="http://www.w3.org/2000/svg"><defs><linearGradient id="sw-gradient-0" x1="0" x2="0" y1="1" y2="0"><stop stop-color="rgba(41, 119, 255, 1)" offset="0%"/><stop stop-color="rgba(177.888, 205.994, 255, 1)" offset="100%"/></linearGradient></defs><path style="transform:translate(0, 0px); opacity:1" fill="url(#sw-gradient-0)" d="M0,196L60,179.7C120,163,240,131,360,147C480,163,600,229,720,212.3C840,196,960,98,1080,98C1200,98,1320,196,1440,245C1560,294,1680,294,1800,261.3C1920,229,2040,163,2160,163.3C2280,163,2400,229,2520,285.8C2640,343,2760,392,2880,367.5C3000,343,3120,245,3240,212.3C3360,180,3480,212,3600,204.2C3720,196,3840,147,3960,179.7C4080,212,4200,327,4320,310.3C4440,294,4560,147,4680,147C4800,147,4920,294,5040,351.2C5160,408,5280,376,5400,343C5520,310,5640,278,5760,261.3C5880,245,6000,245,6120,220.5C6240,196,6360,147,6480,122.5C6600,98,6720,98,6840,130.7C6960,163,7080,229,7200,277.7C7320,327,7440,359,7560,367.5C7680,376,7800,359,7920,326.7C8040,294,8160,245,8280,228.7C8400,212,8520,229,8580,236.8L8640,245L8640,490L8580,490C8520,490,8400,490,8280,490C8160,490,8040,490,7920,490C7800,490,7680,490,7560,490C7440,490,7320,490,7200,490C7080,490,6960,490,6840,490C6720,490,6600,490,6480,490C6360,490,6240,490,6120,490C6000,490,5880,490,5760,490C5640,490,5520,490,5400,490C5280,490,5160,490,5040,490C4920,490,4800,490,4680,490C4560,490,4440,490,4320,490C4200,490,4080,490,3960,490C3840,490,3720,490,3600,490C3480,490,3360,490,3240,490C3120,490,3000,490,2880,490C2760,490,2640,490,2520,490C2400,490,2280,490,2160,490C2040,490,1920,490,1800,490C1680,490,1560,490,1440,490C1320,490,1200,490,1080,490C960,490,840,490,720,490C600,490,480,490,360,490C240,490,120,490,60,490L0,490Z"/></svg>