<?xml version="1.0" standalone="no"?>
<svg xmlns:xlink="http://www.w3.org/1999/xlink" id="wave" style="transform:rotate(180deg); transition: 0.3s"
    viewBox="0 0 1440 490" version="1.1" xmlns="http://www.w3.org/2000/svg">
    <defs>
        <linearGradient id="sw-gradient-0" x1="0" x2="0" y1="1" y2="0">
            <stop stop-color="rgba(41, 119, 255, 1)" offset="0%" />
            <stop stop-color="rgba(154.854, 191.356, 255, 1)" offset="100%" />
        </linearGradient>
    </defs>
    <path style="transform:translate(0, 0px); opacity:1" fill="url(#sw-gradient-0)"
        d="M0,0L60,16.3C120,33,240,65,360,98C480,131,600,163,720,147C840,131,960,65,1080,32.7C1200,0,1320,0,1440,65.3C1560,131,1680,261,1800,294C1920,327,2040,261,2160,236.8C2280,212,2400,229,2520,204.2C2640,180,2760,114,2880,130.7C3000,147,3120,245,3240,285.8C3360,327,3480,310,3600,253.2C3720,196,3840,98,3960,81.7C4080,65,4200,131,4320,196C4440,261,4560,327,4680,343C4800,359,4920,327,5040,334.8C5160,343,5280,392,5400,416.5C5520,441,5640,441,5760,432.8C5880,425,6000,408,6120,334.8C6240,261,6360,131,6480,130.7C6600,131,6720,261,6840,277.7C6960,294,7080,196,7200,163.3C7320,131,7440,163,7560,204.2C7680,245,7800,294,7920,326.7C8040,359,8160,376,8280,351.2C8400,327,8520,261,8580,228.7L8640,196L8640,490L8580,490C8520,490,8400,490,8280,490C8160,490,8040,490,7920,490C7800,490,7680,490,7560,490C7440,490,7320,490,7200,490C7080,490,6960,490,6840,490C6720,490,6600,490,6480,490C6360,490,6240,490,6120,490C6000,490,5880,490,5760,490C5640,490,5520,490,5400,490C5280,490,5160,490,5040,490C4920,490,4800,490,4680,490C4560,490,4440,490,4320,490C4200,490,4080,490,3960,490C3840,490,3720,490,3600,490C3480,490,3360,490,3240,490C3120,490,3000,490,2880,490C2760,490,2640,490,2520,490C2400,490,2280,490,2160,490C2040,490,1920,490,1800,490C1680,490,1560,490,1440,490C1320,490,1200,490,1080,490C960,490,840,490,720,490C600,490,480,490,360,490C240,490,120,490,60,490L0,490Z" />
</svg>