<?xml version="1.0" standalone="no"?>
<svg xmlns:xlink="http://www.w3.org/1999/xlink" id="wave" style="transform:rotate(180deg); transition: 0.3s" viewBox="0 0 1440 330" version="1.1" xmlns="http://www.w3.org/2000/svg"><defs><linearGradient id="sw-gradient-0" x1="0" x2="0" y1="1" y2="0"><stop stop-color="rgba(41, 119, 255, 1)" offset="0%"/><stop stop-color="rgba(176.448, 205.079, 255, 1)" offset="100%"/></linearGradient></defs><path style="transform:translate(0, 0px); opacity:1" fill="url(#sw-gradient-0)" d="M0,66L80,93.5C160,121,320,176,480,165C640,154,800,77,960,82.5C1120,88,1280,176,1440,214.5C1600,253,1760,242,1920,209C2080,176,2240,121,2400,115.5C2560,110,2720,154,2880,187C3040,220,3200,242,3360,247.5C3520,253,3680,242,3840,209C4000,176,4160,121,4320,126.5C4480,132,4640,198,4800,209C4960,220,5120,176,5280,170.5C5440,165,5600,198,5760,209C5920,220,6080,209,6240,198C6400,187,6560,176,6720,148.5C6880,121,7040,77,7200,60.5C7360,44,7520,55,7680,55C7840,55,8000,44,8160,55C8320,66,8480,99,8640,126.5C8800,154,8960,176,9120,170.5C9280,165,9440,132,9600,110C9760,88,9920,77,10080,104.5C10240,132,10400,198,10560,198C10720,198,10880,132,11040,93.5C11200,55,11360,44,11440,38.5L11520,33L11520,330L11440,330C11360,330,11200,330,11040,330C10880,330,10720,330,10560,330C10400,330,10240,330,10080,330C9920,330,9760,330,9600,330C9440,330,9280,330,9120,330C8960,330,8800,330,8640,330C8480,330,8320,330,8160,330C8000,330,7840,330,7680,330C7520,330,7360,330,7200,330C7040,330,6880,330,6720,330C6560,330,6400,330,6240,330C6080,330,5920,330,5760,330C5600,330,5440,330,5280,330C5120,330,4960,330,4800,330C4640,330,4480,330,4320,330C4160,330,4000,330,3840,330C3680,330,3520,330,3360,330C3200,330,3040,330,2880,330C2720,330,2560,330,2400,330C2240,330,2080,330,1920,330C1760,330,1600,330,1440,330C1280,330,1120,330,960,330C800,330,640,330,480,330C320,330,160,330,80,330L0,330Z"/></svg>