<?xml version="1.0" standalone="no"?>
<svg xmlns:xlink="http://www.w3.org/1999/xlink" id="wave" style="transform:rotate(180deg); transition: 0.3s"
    viewBox="0 0 1440 330" version="1.1" xmlns="http://www.w3.org/2000/svg">
    <defs>
        <linearGradient id="sw-gradient-0" x1="0" x2="0" y1="1" y2="0">
            <stop stop-color="rgba(41, 119, 255, 1)" offset="0%" />
            <stop stop-color="rgba(176.448, 205.079, 255, 1)" offset="100%" />
        </linearGradient>
    </defs>
    <path style="transform:translate(0, 0px); opacity:1" fill="url(#sw-gradient-0)"
        d="M0,165L80,154C160,143,320,121,480,104.5C640,88,800,77,960,60.5C1120,44,1280,22,1440,44C1600,66,1760,132,1920,159.5C2080,187,2240,176,2400,170.5C2560,165,2720,165,2880,165C3040,165,3200,165,3360,165C3520,165,3680,165,3840,154C4000,143,4160,121,4320,93.5C4480,66,4640,33,4800,60.5C4960,88,5120,176,5280,214.5C5440,253,5600,242,5760,198C5920,154,6080,77,6240,71.5C6400,66,6560,132,6720,181.5C6880,231,7040,264,7200,231C7360,198,7520,99,7680,93.5C7840,88,8000,176,8160,209C8320,242,8480,220,8640,198C8800,176,8960,154,9120,154C9280,154,9440,176,9600,198C9760,220,9920,242,10080,209C10240,176,10400,88,10560,82.5C10720,77,10880,154,11040,176C11200,198,11360,165,11440,148.5L11520,132L11520,330L11440,330C11360,330,11200,330,11040,330C10880,330,10720,330,10560,330C10400,330,10240,330,10080,330C9920,330,9760,330,9600,330C9440,330,9280,330,9120,330C8960,330,8800,330,8640,330C8480,330,8320,330,8160,330C8000,330,7840,330,7680,330C7520,330,7360,330,7200,330C7040,330,6880,330,6720,330C6560,330,6400,330,6240,330C6080,330,5920,330,5760,330C5600,330,5440,330,5280,330C5120,330,4960,330,4800,330C4640,330,4480,330,4320,330C4160,330,4000,330,3840,330C3680,330,3520,330,3360,330C3200,330,3040,330,2880,330C2720,330,2560,330,2400,330C2240,330,2080,330,1920,330C1760,330,1600,330,1440,330C1280,330,1120,330,960,330C800,330,640,330,480,330C320,330,160,330,80,330L0,330Z" />
</svg>