<?xml version="1.0" standalone="no"?>
<svg xmlns:xlink="http://www.w3.org/1999/xlink" id="wave" style="transform:rotate(180deg); transition: 0.3s"
    viewBox="0 0 1440 330" version="1.1" xmlns="http://www.w3.org/2000/svg">
    <defs>
        <linearGradient id="sw-gradient-0" x1="0" x2="0" y1="1" y2="0">
            <stop stop-color="rgba(41, 119, 255, 1)" offset="0%" />
            <stop stop-color="rgba(176.448, 205.079, 255, 1)" offset="100%" />
        </linearGradient>
    </defs>
    <path style="transform:translate(0, 0px); opacity:1" fill="url(#sw-gradient-0)"
        d="M0,198L80,181.5C160,165,320,132,480,110C640,88,800,77,960,88C1120,99,1280,132,1440,165C1600,198,1760,231,1920,242C2080,253,2240,242,2400,225.5C2560,209,2720,187,2880,148.5C3040,110,3200,55,3360,38.5C3520,22,3680,44,3840,60.5C4000,77,4160,88,4320,110C4480,132,4640,165,4800,170.5C4960,176,5120,154,5280,137.5C5440,121,5600,110,5760,137.5C5920,165,6080,231,6240,214.5C6400,198,6560,99,6720,66C6880,33,7040,66,7200,110C7360,154,7520,209,7680,225.5C7840,242,8000,220,8160,225.5C8320,231,8480,264,8640,275C8800,286,8960,275,9120,275C9280,275,9440,286,9600,291.5C9760,297,9920,297,10080,291.5C10240,286,10400,275,10560,236.5C10720,198,10880,132,11040,93.5C11200,55,11360,44,11440,38.5L11520,33L11520,330L11440,330C11360,330,11200,330,11040,330C10880,330,10720,330,10560,330C10400,330,10240,330,10080,330C9920,330,9760,330,9600,330C9440,330,9280,330,9120,330C8960,330,8800,330,8640,330C8480,330,8320,330,8160,330C8000,330,7840,330,7680,330C7520,330,7360,330,7200,330C7040,330,6880,330,6720,330C6560,330,6400,330,6240,330C6080,330,5920,330,5760,330C5600,330,5440,330,5280,330C5120,330,4960,330,4800,330C4640,330,4480,330,4320,330C4160,330,4000,330,3840,330C3680,330,3520,330,3360,330C3200,330,3040,330,2880,330C2720,330,2560,330,2400,330C2240,330,2080,330,1920,330C1760,330,1600,330,1440,330C1280,330,1120,330,960,330C800,330,640,330,480,330C320,330,160,330,80,330L0,330Z" />
</svg>